<?xml version="1.0" encoding="utf-8"?>
<!-- Generator: Adobe Illustrator 15.0.2, SVG Export Plug-In . SVG Version: 6.00 Build 0)  -->
<!DOCTYPE svg PUBLIC "-//W3C//DTD SVG 1.1//EN" "http://www.w3.org/Graphics/SVG/1.1/DTD/svg11.dtd">
<svg version="1.1" id="レイヤー_1" xmlns="http://www.w3.org/2000/svg" xmlns:xlink="http://www.w3.org/1999/xlink" x="0px"
	 y="0px" width="141.732px" height="141.732px" viewBox="0 0 141.732 141.732" enable-background="new 0 0 141.732 141.732"
	 xml:space="preserve">
<g>
	<circle cx="119.684" cy="107.843" r="13.979"/>
	<rect x="106.954" y="16.517" width="25.459" height="69.532"/>
	<path d="M68.231,63.296c0,0,17.591-1.109,17.591-22.191c0-24.41-22.029-24.533-34.604-24.533c-8.157,0-12.277,0-17.691,0H22.74
		H8.068v105.305h8.014h17.445c4.512,0,10.171,0,17.321,0c34.766,0,40.684-19.007,40.684-31.212S85.614,66.995,68.231,63.296z
		 M34.896,36.406c9.703,0,9.267,0,11.835,0c2.219,0,11.835,0.946,11.835,10.1c0,10.818-8.322,10.449-13.869,10.449
		c-5.548,0-2.774,0-9.801,0V36.406z M48.765,99.487c-6.473,0-9.062,0-13.87,0V76.372c0,0,6.103,0,14.147,0
		c8.044,0,14.146,1.664,14.146,11.558S55.237,99.487,48.765,99.487z"/>
</g>
</svg>
